<?xml version="1.0" encoding="utf-8"?>
<!-- Generator: Adobe Illustrator 27.9.0, SVG Export Plug-In . SVG Version: 6.00 Build 0)  -->
<svg version="1.1" id="Layer_1" xmlns="http://www.w3.org/2000/svg" xmlns:xlink="http://www.w3.org/1999/xlink" x="0px" y="0px"
	 width="1272px" height="1168px" viewBox="0 0 1272 1168" style="enable-background:new 0 0 1272 1168;" xml:space="preserve">
<g>
	<path d="M764.9,498.8v27.8c0.9-0.2,1.5-0.4,2.3-0.6c4.3-1.3,7.7-3,10-5.3c2.3-2.3,3.6-5.1,3.6-8.7s-1.3-6.4-4-8.9
		C774,500.7,770,499.2,764.9,498.8"/>
	<path d="M632.1,493.5c-3.6,0-6.4,2.3-8.3,6.8c-2.1,4.5-3,11.3-3,20.2c0,8.9,1.1,15.5,3,20c2.1,4.5,4.9,6.6,8.3,6.6
		c3.4,0,6.4-2.3,8.3-6.6c1.9-4.3,3-11.1,3-20c0-8.9-1.1-15.5-3-20.2C638.2,495.8,635.5,493.5,632.1,493.5"/>
	<path d="M571.1,495.4v26.6c0.6-0.2,1.3-0.4,1.9-0.6c4-1.5,7.2-3.6,9.6-6s3.4-5.3,3.4-8.9c0-3.2-1.3-6-3.8-7.9
		C579.6,496.4,576,495.4,571.1,495.4"/>
	<path d="M527.9,513.2c1.9-2.1,3-4.5,3-7c0-2.8-1.3-4.9-3.6-6.4c-2.3-1.5-5.5-2.3-9.6-2.3v20.6c0.6-0.2,1.3-0.4,1.9-0.4
		C523.5,516.8,526.2,515.1,527.9,513.2"/>
	<path d="M851,714.7c-22.7,26.1-59.5,65.7-99.7,96.7V598.5c-26.4-1.5-52.7-2.6-79.1-3v368.3c125.6-64.6,269.7-217.2,327.1-336
		c-25.5-4.7-51-8.7-76.7-12.3C906,646.5,880.1,681.3,851,714.7"/>
	<path d="M751.3,291.1c39.5,0,167.5,40.4,167.5,91.6c0,18.5-16.4,44.8-66.9,71.4l-31.9,17.2c64.6,6,129.2,14.9,193.2,26.8
		c-9.1-13.8-24-25.3-44.4-35.1c28.7-31.7,34.6-54.6,34.6-82.7c0-39.5-32.7-74.6-79.9-104.8c-28.7-18.3-72.5-40.4-136.4-58
		c-36.8-10-75.2-15.9-114.8-17.6v263.5c26.4,0.4,52.7,1.5,79.1,3V291.1L751.3,291.1z"/>
	<path d="M597.9,463.3V199.8c-27,2.6-53.8,7.2-81,14.2l1.9,252.3C545.1,464.8,571.5,463.7,597.9,463.3"/>
	<path d="M531.5,528.5c-2.8-1.3-6.2-1.3-10-0.2c-1.3,0.4-2.6,0.6-3.6,1.1v20.2c5.1-0.2,9.4-1.7,12.8-4.3c3.4-2.6,5.1-6,5.1-9.8
		C535.6,532.1,534.3,529.8,531.5,528.5"/>
	<path d="M298.2,490.9c-14.5-42.7-27-88.2-37.6-136.2c-20.8,18.7-41.7,39.7-61.8,63.1c7.4,30.4,15.3,59.3,24.2,86.9
		C248.3,499.8,273.3,495,298.2,490.9"/>
	<path d="M453.3,471.2c-13.8-72.5-22.7-148.3-27.4-224.2c-25.1,11.3-51.6,25.3-79.1,42.5c5.1,66.9,13,130.3,24.4,190.6
		C398.7,476.5,425.9,473.5,453.3,471.2"/>
	<path d="M1268.3,672.8L1268.3,672.8v-81.4c0-18.5-18.3-27.8-69.7-42.9c15.5-50.8,27.2-103.3,34.6-157.7l6.8-49.1l-86.1-46.1v-59.3
		l-79.1-42.7v-61.8l-40.6-19.3C919.2,57.4,791.7,20.8,644.6,1.3L635,0l-9.6,1.3C478.4,20.8,351.1,57.6,235.7,112.4l-40.6,19.3v61.8
		l-79.1,42.9v59.1l-85.9,46.1l6.8,49.1c7.7,54.4,19.1,107.3,34.9,158.1c-53.8,15.7-68.2,24-68.2,42.5c0,27.2,0,54.2,0,81.4l0,0
		c0,0.2,0,0.4,0,0.6c0,20,53.6,38.3,142.8,52.5c20.4,37.4,43.4,73.3,69.1,108.2c96.7,130.7,227.2,237.8,387.8,317.9L635,1168
		l31.7-15.9c160.7-80.3,291.1-187.2,387.8-317.9c25.5-34.4,48.5-70.6,68.9-107.7c90.5-14.2,144.7-32.7,144.7-52.9
		C1268.3,673.3,1268.3,673,1268.3,672.8 M187.5,338.3V279l79.1-42.9v-59.3C376,124.7,496.5,90.3,635,72l0,0c0.2,0,0.6,0,0.9,0
		c8.5,1.1,16.6,2.3,25.1,3.6c0.9,0,1.7,0.2,2.6,0.4c7.7,1.3,15.3,2.3,23,3.6c0.2,0,0.4,0,0.9,0c41.7,7,81.6,15.5,120.3,25.7
		c2.3,0.6,4.5,1.3,6.8,1.9c5.5,1.5,11.1,3,16.4,4.5c0.6,0.2,1.3,0.4,1.7,0.4c7,2.1,14,4,21,6.2c1.7,0.4,3.4,1.1,5.1,1.5
		c5.7,1.9,11.7,3.6,17.4,5.5c1.9,0.6,3.8,1.3,5.5,1.9c13,4.3,25.7,8.9,38.3,13.6c3.6,1.3,7.2,2.8,10.8,4.3c3.6,1.3,7.2,2.8,10.6,4
		c21.5,8.5,42.3,17.6,62.7,27.4v59.3l79.1,42.9v59.3l79.7,42.9c-1.3,8.1-2.8,18.9-5.1,32.3c-0.9,5.3-1.9,11.1-3,17
		c-1.3,7.2-3,14.9-4.7,23c-0.4,2.6-1.1,4.9-1.7,7.4c-4.7,20.6-10.6,44-18.5,69.3l0,0c-181.9-45.3-368.7-65-554.9-59.5
		c-0.6,0-1.3,0-1.7,0c-9.8,0.2-19.8,0.6-29.5,1.3c-0.4,0-1.1,0-1.5,0c-8.9,0.4-17.9,0.9-26.8,1.5c-1.3,0-2.8,0-4.3,0.2
		c-8.9,0.6-17.9,1.3-26.8,1.9c-1.5,0-2.8,0.2-4.3,0.2c-8.3,0.6-16.4,1.3-24.7,2.1c-2.1,0.2-4.3,0.2-6.4,0.4
		c-8.3,0.9-16.4,1.5-24.7,2.6c-2.1,0.2-4.3,0.4-6.4,0.6c-7.7,0.9-15.1,1.7-22.7,2.6c-2.8,0.2-5.5,0.6-8.3,1.1
		c-7.4,0.9-14.9,1.9-22.3,3c-2.8,0.4-5.7,0.6-8.7,1.1c-7,1.1-13.8,1.9-20.8,3c-3.4,0.4-6.8,1.1-10.2,1.5c-7.9,1.3-15.7,2.6-23.6,3.8
		c-2.3,0.4-4.9,0.9-7.2,1.3c-7.7,1.3-15.3,2.6-23,4c-2.6,0.4-5.1,0.9-7.9,1.3c-7.4,1.3-14.9,2.8-22.5,4.3c-2.8,0.6-5.5,1.1-8.3,1.5
		c-7,1.3-14,3-21,4.5c-3.2,0.6-6.4,1.3-9.6,1.9c-7.7,1.7-15.3,3.4-23.2,5.1c-2.6,0.6-5.1,1.1-7.4,1.7c-7.7,1.7-15.1,3.6-22.7,5.5
		c-2.6,0.6-5.1,1.3-7.9,1.9c-21.5-68.9-29.1-123.3-32.9-149.4L187.5,338.3z M1112.8,589.5c-1.3-2.3-3.2-4.5-5.3-6.8
		c-3-3-5.7-5.7-8.7-8.7c-3.8-3.8-6.4-7.4-7.9-11.1s-2.3-7-2.3-10.2c0-2.8,0.4-5.1,1.5-7.4s2.3-3.8,3.8-5.1c1.5-1.3,3.6-2.1,6-2.6
		s4.7-0.4,7.2,0.2c4.5,1.1,8.3,3.2,11.5,6.4c3.2,3.2,5.7,7.9,7.4,13.8c-3.4,1.3-6.8,2.6-10.2,3.8c-0.9-3.2-1.9-6-3.4-8.3
		c-1.5-2.1-3.4-3.6-6-4.3c-1.9-0.4-3.4,0-4.5,0.9c-1.1,1.1-1.7,2.6-1.7,4.3c0,1.9,0.6,4,1.7,6.2c1.3,2.1,3,4.3,5.3,6.6
		c2.6,2.6,5.3,5.3,7.9,7.9c3.8,3.8,6.6,7.7,8.5,11.3c1.9,3.8,2.8,7.7,2.8,11.7c0,3-0.4,5.5-1.5,7.7c-1.1,2.3-2.6,4-4.3,5.5
		c-1.9,1.3-3.8,2.3-6.4,2.8c-2.6,0.4-5.1,0.4-7.7-0.2c-5.1-1.3-9.4-3.6-13-7.2c-3.6-3.8-6.4-8.7-8.1-15.1c3.4-1.3,6.6-2.6,10-3.8
		c1.1,3.8,2.6,7.2,4.3,9.8c1.7,2.6,4.3,4.3,7.2,4.9c2.3,0.6,4.3,0.2,5.5-1.1c1.5-1.3,2.1-3,2.1-5.1
		C1114.9,594,1114.3,591.9,1112.8,589.5 M1071.6,560.6v11.9c-5.7-1.3-11.7-2.6-17.4-3.8V590c7.7,1.7,15.5,3.4,23.2,5.1v11.5
		c-11.7-2.6-23.4-5.1-35.3-7.7v-74.6c11.7,2.3,23.6,4.9,35.3,7.7c-0.9,3.6-1.5,7.4-2.3,11.1c-7-1.5-13.8-3-21-4.5v18.7
		C1059.9,558.3,1065.6,559.3,1071.6,560.6 M1031,596.8c-4.5-0.9-8.9-1.7-13.2-2.6c-3.4-9.4-6.8-18.7-10.2-28.1
		c-0.6,0.2-1.3,0.2-2.1,0.4c-0.6,0-1.3,0.2-2.1,0.2c-0.4,0-0.9,0-1.3,0.2v24.2c-4-0.6-8.1-1.5-11.9-2.1v-74.6
		c3.8,0.6,7.7,1.3,11.3,2.1c3.8,0.6,7.7,1.9,11.1,3.6c3.4,1.7,6.2,3.8,8.7,6.2c2.6,2.6,4.3,5.1,5.5,8.3c1.3,3.2,2.1,6.4,2.1,10.2
		c0,4.5-0.9,8.1-2.8,11.1c-1.9,3-4.3,5.1-7.7,6.8C1022.5,574,1026.7,585.5,1031,596.8 M947.2,568.1c1.5,2.6,3.8,3.8,6.4,4.3
		c2.8,0.4,5.1-0.2,6.6-2.1c1.5-1.9,2.3-4.9,2.3-8.7v-51.6c4,0.6,8.1,1.3,12.1,1.9v51.6c0,7.7-1.9,13.2-5.7,16.8
		c-3.8,3.6-8.9,4.7-15.3,3.8c-6.2-1.1-11.3-3.8-15.1-8.5c-3.8-4.7-5.7-10.8-5.7-18.7v-51.6c4,0.6,8.1,1.3,12.1,1.9v51.6
		C944.9,562.5,945.5,565.7,947.2,568.1 M882.4,509.8v-11.5c13.6,1.7,27.2,3.4,40.6,5.3v11.5c-4.9-0.6-9.6-1.3-14.2-1.9v63.1
		c-4-0.6-8.1-1.1-12.1-1.5v-63.1C892,511.1,887.1,510.5,882.4,509.8 M847.1,551.5c1.9,4.7,4.7,7,8.1,7.4c2.3,0.2,4.3-0.6,6-2.6
		c1.7-1.9,3-4.9,3.8-8.9c3.4,2.8,7,5.3,10.4,8.1c-1.7,5.5-4.5,9.6-7.9,12.1c-3.4,2.6-7.7,3.6-12.3,3c-7.2-0.9-13-4.7-17-11.3
		c-4.3-6.8-6.4-16.6-6.4-29.3s2.1-22.3,6.4-28.3c4.3-6,10-8.7,17-7.9c4.7,0.4,8.9,2.6,12.3,5.7c3.6,3.2,6.2,7.9,7.9,14
		c-3.4,1.9-7,3.8-10.4,5.7c-0.9-4-2.3-7.4-3.8-9.8c-1.7-2.3-3.6-3.6-6-3.8c-3.4-0.4-6.2,1.5-8.1,5.7c-1.9,4.3-3,10.6-3,19.6
		C844.2,540.2,845.2,546.8,847.1,551.5 M817.8,491.3v74.6c-4-0.4-8.1-0.6-12.1-1.1c0-24.9,0-49.7,0-74.6
		C809.7,490.7,813.8,491.1,817.8,491.3 M792.7,512.8c0,3.8-0.6,7-1.9,9.8c-1.3,2.8-3,5.1-5.3,7.2s-5.1,3.8-8.3,5.1
		c-3.2,1.3-6.6,2.6-10.4,3.4c-0.6,0.2-1.3,0.2-1.9,0.4v23c-4-0.2-8.1-0.4-12.1-0.9v-74.6c3.8,0.2,7.7,0.4,11.3,0.6
		c4,0.2,7.9,1.1,11.5,2.3c3.6,1.3,6.6,3,8.9,5.3c2.6,2.3,4.5,4.9,6,7.9C792.1,505.8,792.7,509.2,792.7,512.8 M725.2,554
		c0,1.7-0.6,3.2-1.9,4.5c-1.3,1.3-2.8,1.7-4.5,1.7c-1.7,0-3.2-0.9-4.5-2.1c-1.3-1.3-1.9-2.8-1.9-4.5s0.6-3.2,1.9-4.3
		c1.3-1.1,2.8-1.7,4.5-1.7c1.7,0,3.2,0.9,4.5,2.1C724.5,550.8,725.2,552.3,725.2,554 M692.2,533.2c-1.3-1.9-3.2-3.8-5.3-5.5
		c-3-2.3-6-4.7-8.9-6.8c-3.8-3-6.4-6.2-7.9-9.4c-1.5-3.4-2.3-6.6-2.3-10c0-2.8,0.4-5.3,1.5-7.7c1.1-2.3,2.3-4.3,4-6
		c1.7-1.7,3.6-3,6-3.8s4.7-1.3,7.4-1.3c4.5,0,8.5,1.5,11.7,4c3.4,2.6,6,6.6,7.7,12.1c-3.4,1.9-7,3.8-10.4,6c-0.9-3-2.1-5.5-3.6-7.4
		c-1.5-1.9-3.4-2.8-6-3c-1.9,0-3.4,0.6-4.7,1.9c-1.1,1.3-1.7,2.8-1.7,4.7c0,1.9,0.6,3.8,1.7,5.7c1.1,1.9,3,3.8,5.3,5.5
		c2.6,2.1,5.3,4,8.1,6.2c3.8,3,6.8,6.2,8.7,9.6c1.9,3.4,2.8,7,2.8,11.1c0,3-0.4,5.5-1.5,8.1c-1.1,2.6-2.6,4.7-4.5,6.4
		c-1.9,1.7-4,3.2-6.4,4c-2.6,1.1-5.1,1.5-7.7,1.3c-5.1,0-9.6-1.7-13.2-4.7c-3.8-3-6.4-7.4-8.3-13.4c3.4-1.9,6.8-3.8,10.2-6
		c1.1,3.8,2.6,6.6,4.3,8.9c1.9,2.1,4.3,3.4,7.4,3.4c2.3,0,4.3-0.6,5.7-2.3c1.5-1.5,2.1-3.4,2.1-5.5
		C694.3,537.2,693.5,535.1,692.2,533.2 M655.7,520.5c0,12.8-2.1,22.3-6.4,28.7c-4.3,6.4-10,9.6-17.4,9.6c-7.4,0-13-3.2-17.4-9.6
		c-4.3-6.4-6.4-15.9-6.4-28.7c0-12.8,2.1-22.5,6.4-28.9c4.3-6.4,10-9.8,17.2-9.8c7.2,0,13,3.2,17.2,9.8
		C653.5,497.9,655.7,507.7,655.7,520.5 M600.8,557.9c-4.5,0-8.9,0.2-13.4,0.2c-3.4-8.7-7-17.2-10.4-25.9c-0.6,0.2-1.5,0.6-2.1,0.9
		c-0.6,0.2-1.5,0.4-2.1,0.9c-0.4,0.2-0.9,0.2-1.3,0.4v24.2c-4,0-8.1,0.2-12.1,0.4v-74.6c3.8,0,7.7-0.2,11.3-0.4
		c4,0,7.7,0.2,11.1,1.3c3.4,1.1,6.4,2.3,8.7,4.3c2.6,1.9,4.3,4.3,5.7,7.2c1.5,3,2.1,6.2,2.1,9.8c0,4.5-0.9,8.3-2.8,11.7
		c-1.9,3.4-4.5,6.2-7.7,8.5C591.9,536.8,596.4,547.4,600.8,557.9 M544.5,524.5c2.1,2.8,3.2,6.4,3.2,10.4c0,3.6-0.9,6.8-2.3,10
		c-1.5,3-3.6,5.7-6.4,8.1c-2.8,2.3-6,4-10,5.5c-3.8,1.5-8.1,2.3-13,2.6c-3.6,0.2-7,0.4-10.4,0.6v-74.8c3.4-0.2,6.8-0.4,10.2-0.6
		c8.1-0.4,14.7,1.1,19.3,4.5c4.9,3.4,7.2,8.1,7.2,14c0,2.6-0.6,4.9-1.9,7.2c-1.3,2.6-3,4.7-5.1,6.6
		C539.4,519.6,542.4,521.5,544.5,524.5 M468.4,564.2c-4.5,0.4-8.9,0.6-13.4,1.1c-3.4-8.5-7-16.8-10.4-25.3c-0.6,0.4-1.5,0.6-2.1,1.1
		c-0.6,0.4-1.5,0.6-2.1,0.9c-0.4,0.2-0.9,0.4-1.3,0.6v24.2c-4,0.4-8.1,0.9-12.1,1.3c0-24.9,0-49.7,0-74.6c3.8-0.4,7.7-0.9,11.3-1.1
		c4-0.4,7.7-0.2,11.1,0.4c3.4,0.6,6.4,1.9,8.7,3.8c2.6,1.9,4.3,4,5.7,6.8c1.3,2.8,2.1,6,2.1,9.6c0,4.5-0.9,8.5-2.8,11.9
		c-1.9,3.4-4.5,6.4-7.7,8.9C459.5,543.8,464,554,468.4,564.2 M407.9,525.3v11.9c-6,0.6-11.7,1.3-17.6,2.1v21
		c7.9-0.9,15.7-1.7,23.6-2.6v11.5c-11.9,1.3-23.8,2.6-35.5,4v-74.6c11.9-1.5,23.8-2.8,35.5-4c-0.9,3.8-1.5,7.9-2.3,11.7
		c-7,0.9-14,1.5-21.3,2.3v18.7C396.2,526.6,402.1,526,407.9,525.3 M362.6,500.7v74.6c-3.8,0.4-7.9,1.1-11.9,1.5
		c-6.4-14.7-13-29.1-19.3-43.6v46.5c-3.8,0.6-7.9,1.3-11.7,1.7v-74.6c3.8-0.6,7.9-1.3,11.9-1.7c6.4,14.5,13,29.1,19.3,43.6v-46.5
		C354.7,501.8,358.6,501.1,362.6,500.7 M308.6,583.4c-4.5,0.6-8.9,1.5-13.4,2.1c-3.4-8.1-6.8-16.4-10.2-24.4
		c-0.6,0.4-1.3,0.9-2.1,1.3c-0.6,0.4-1.3,0.6-2.1,1.1c-0.4,0.2-0.9,0.4-1.3,0.6v24.2c-4,0.6-8.1,1.3-12.1,2.1v-74.6
		c3.8-0.6,7.7-1.3,11.3-1.9c4-0.6,7.7-0.9,11.1-0.2c3.4,0.6,6.2,1.5,8.7,3.2c2.6,1.5,4.3,3.8,5.7,6.4c1.3,2.6,2.1,5.7,2.1,9.4
		c0,4.5-0.9,8.5-2.8,12.1c-1.9,3.6-4.5,6.8-7.7,9.6C299.9,563.4,304.2,573.4,308.6,583.4 M257,592.1c-4,0.9-8.3,1.5-12.3,2.3
		c-0.9-4.5-1.7-8.9-2.6-13.4c-5.5,1.1-11.1,2.1-16.6,3.2c-0.9,4.9-1.7,9.8-2.6,14.5c-3.8,0.9-7.9,1.7-11.9,2.6
		c5.1-25.9,10-51.9,14.9-77.8c5.3-1.1,10.8-2.1,16.2-3.2C247,544.3,252.1,568.3,257,592.1 M209.2,526.8c-5.1,25.9-10.2,51.9-15.1,78
		c-4,0.9-8.1,1.7-12.1,2.6c-3-15.1-6-30.4-8.9-45.5c-3,16.6-6,32.9-8.9,49.5c-4,1.1-8.1,1.9-12.1,2.8c-5.1-23.8-10-47.4-15.1-71
		c4-1.1,8.3-2.1,12.3-3c3,15.5,6.2,30.8,9.4,46.3c3-16.8,6.2-33.8,8.9-50.6c3.8-0.9,7.4-1.7,11.3-2.6c3,15.5,6.2,31,9.1,46.5
		c3.2-16.8,6.4-33.8,9.4-50.6C201.1,528.5,205.1,527.9,209.2,526.8 M1241.8,672.8c-7.2,4.5-20.4,9.8-46.8,16.6
		c-16.6,4.3-36.3,8.5-58.7,12.3c6.4-12.8,12.8-25.7,18.7-38.9c-23.4-6.2-47-11.9-70.8-17.2c-22.1,47-50.6,96.7-87.3,146.2
		c-4.3,5.7-8.5,11.3-12.5,16.8c-0.4,0.6-0.9,1.3-1.3,1.7c-1.7,2.1-3.4,4.3-5.1,6.4c-0.6,0.6-1.1,1.3-1.7,2.1c-1.5,1.9-3.2,4-4.9,6
		c-3.2,4-6.4,7.9-9.8,11.7c-3.2,3.8-6.6,7.7-10,11.5c-0.6,0.9-1.5,1.7-2.1,2.6c-1.5,1.7-3,3.4-4.5,5.1c-0.4,0.4-0.9,1.1-1.3,1.5
		c-1.7,1.9-3.6,3.8-5.3,6c-0.4,0.4-1.1,1.1-1.5,1.5c-1.7,1.9-3.6,3.8-5.3,5.7c-0.2,0.2-0.6,0.6-0.9,0.9c-1.9,2.1-3.8,4.3-6,6.4
		c-1.3,1.3-2.3,2.6-3.6,3.6c-1.1,1.1-2.1,2.3-3.2,3.4c-1.3,1.3-2.3,2.6-3.6,3.6c-1.1,1.1-2.1,2.1-3.2,3.2c-1.3,1.3-2.3,2.3-3.4,3.4
		c-1.1,1.1-2.3,2.3-3.4,3.4c-0.9,0.9-1.5,1.5-2.3,2.3c-1.5,1.5-3,2.8-4.5,4.3c-0.2,0.2-0.2,0.2-0.4,0.4c-2.1,2.1-4.3,4-6.4,6
		c-0.4,0.4-1.1,1.1-1.5,1.5c-1.7,1.7-3.6,3.2-5.1,4.9l-0.2,0.2c-2.1,1.9-4.3,3.8-6.4,6c-0.4,0.4-0.9,0.6-1.3,1.1
		c-1.9,1.7-3.8,3.4-5.5,5.1c-0.9,0.9-1.7,1.5-2.6,2.3c-1.3,1.3-2.8,2.3-4,3.6c-1.1,0.9-1.9,1.7-3,2.6c-1.3,1.1-2.6,2.3-3.8,3.4
		c-0.6,0.6-1.3,1.3-2.1,1.7c-1.5,1.3-3,2.6-4.7,3.8c-0.6,0.6-1.3,1.3-2.1,1.7c-1.5,1.3-3.2,2.6-4.7,3.8c-0.6,0.4-1.3,1.1-1.7,1.3
		c-1.7,1.3-3.4,2.8-4.9,4c-0.9,0.6-1.5,1.3-2.3,1.9c-1.5,1.3-3,2.3-4.5,3.6c-0.9,0.6-1.5,1.3-2.3,1.9c-1.3,1.3-2.8,2.3-4.3,3.4
		c-1.3,1.1-2.6,1.9-3.8,3c-0.9,0.6-1.7,1.5-2.8,2.1c-1.3,0.9-2.3,1.9-3.6,2.8c-1.1,0.9-1.9,1.5-3,2.3c-0.9,0.6-1.9,1.3-2.8,2.1
		c-1.3,1.1-2.6,1.9-3.8,2.8c-0.6,0.4-1.3,1.1-2.1,1.5c-1.5,1.1-3,2.1-4.5,3.4c-0.6,0.4-1.3,0.9-1.9,1.3c-1.5,1.1-3,2.3-4.5,3.4
		c-1.1,0.6-2.1,1.5-3,2.1c-1.1,0.9-2.3,1.5-3.4,2.3c-0.9,0.6-1.7,1.3-2.6,1.9c-1.3,0.9-2.3,1.7-3.6,2.6c-0.9,0.6-1.7,1.3-2.6,1.7
		c-1.3,0.9-2.6,1.7-3.6,2.6c-0.4,0.2-0.9,0.6-1.3,0.9c-1.5,1.1-3.2,2.3-4.9,3.4c-0.4,0.2-0.9,0.6-1.3,0.9c-1.5,1.1-3.2,2.1-4.7,3.2
		c-0.9,0.4-1.5,1.1-2.3,1.5c-1.3,0.9-2.6,1.7-3.8,2.6c-0.9,0.6-1.7,1.3-2.6,1.7c-1.1,0.6-2.3,1.5-3.4,2.1c-0.9,0.4-1.5,1.1-2.3,1.5
		c-1.3,0.9-2.3,1.5-3.6,2.3c-0.4,0.2-0.9,0.6-1.3,0.9c-1.5,1.1-3,1.9-4.5,2.8c-0.6,0.4-1.3,0.9-1.9,1.3c-1.3,0.9-2.6,1.5-3.8,2.3
		c-1.1,0.6-1.9,1.3-3,1.9c-0.9,0.6-1.7,1.1-2.6,1.7c-0.9,0.4-1.5,1.1-2.3,1.5c-1.1,0.6-2.1,1.3-3.2,1.9c-0.6,0.4-1.3,0.6-1.9,1.1
		c-1.3,0.6-2.3,1.5-3.6,2.1c-0.4,0.2-0.9,0.6-1.3,0.9c-1.3,0.9-2.6,1.5-3.8,2.3c-0.6,0.4-1.3,0.9-2.1,1.3c-1.1,0.6-2.1,1.3-3,1.7
		c-0.4,0.2-1.1,0.6-1.5,0.9c-1.3,0.6-2.3,1.3-3.6,2.1c-0.6,0.2-1.3,0.6-1.7,1.1c-1.1,0.6-2.1,1.3-3.2,1.9c-0.4,0.2-0.9,0.4-1.3,0.6
		c-1.3,0.6-2.6,1.3-3.6,2.1c-0.2,0.2-0.6,0.2-0.9,0.4c-1.3,0.6-2.6,1.5-3.8,2.1c-0.6,0.2-1.3,0.6-1.7,1.1c-1.1,0.4-1.9,1.1-2.8,1.5
		c-0.6,0.4-1.3,0.9-2.1,1.1c-0.9,0.4-1.5,0.9-2.3,1.3c-0.9,0.4-1.5,0.9-2.3,1.3c-0.6,0.4-1.3,0.9-2.1,1.3c-0.6,0.2-1.1,0.6-1.5,0.9
		c-0.9,0.4-1.7,1.1-2.6,1.3c-2.3,1.3-4.5,2.3-6.6,3.6c-0.4,0.2-0.9,0.4-1.3,0.6c-1.1,0.4-1.9,1.1-2.8,1.5c-0.2,0.2-0.6,0.2-0.9,0.4
		c-1.1,0.6-2.1,1.1-3.2,1.7c0,0-0.2,0-0.4,0.2c-3,1.5-6,3-8.7,4.5c-3.4,1.7-6.4,3.4-9.1,4.7c0,0-0.2,0-0.2,0.2
		c-52.9-27-228.7-115.2-362.1-296.5c-26.6-35.5-48.7-71.2-67.2-106l0,0c-1.7-3.4-3.6-6.6-5.3-10c0,0,0,0,0-0.2
		c-1.7-3.2-3.2-6.4-4.9-9.4c0-0.2-0.2-0.4-0.4-0.9c-1.5-2.8-2.8-5.7-4.3-8.5c-0.2-0.4-0.4-1.1-0.9-1.5c-1.5-3.2-3-6.4-4.7-9.6
		c-23.6,5.3-47,11.1-70.6,17.2c6,12.8,12.1,25.5,18.5,38c-21.7-3.8-41-7.9-57.4-12.1c-25.7-6.6-39.1-12.5-45.9-16.4
		c-0.9-0.4-1.9-1.7-2.1-2.6c-0.2-1.3,0.2-2.8,1.3-3.6c3.6-3.2,11.3-4.3,22.1-8.7c39.3-11.7,79.1-22.3,119-31.5l0,0
		c0.9-0.2,1.7-0.4,2.6-0.6c8.3-1.9,16.6-3.8,24.9-5.5c1.5-0.2,3-0.6,4.5-1.1c7.7-1.7,15.1-3.2,22.5-4.9c1.1-0.2,2.1-0.4,3-0.6l0,0
		c0.4,0,1.1-0.2,1.3-0.2c8.3-1.7,16.6-3.4,25.1-4.9c1.9-0.4,3.8-0.6,5.7-1.1c8.1-1.5,16.2-3,24-4.5c0.4,0,0.9-0.2,1.3-0.2l0,0h0.2
		c9.8-1.7,19.6-3.4,29.3-4.9c1.5-0.2,3-0.4,4.5-0.6c9.4-1.5,18.9-2.8,28.3-4.3c1.7-0.2,3.6-0.4,5.3-0.9c9.4-1.3,18.9-2.6,28.3-3.8
		c1.5-0.2,3.2-0.4,4.7-0.6c9.8-1.3,19.6-2.3,29.1-3.4c0.6,0,1.3,0,2.1-0.2c9.8-1.1,19.3-1.9,29.1-3c1.1,0,2.1-0.2,3.2-0.2
		c9.6-0.9,19.3-1.7,29.1-2.6c1.7,0,3.4-0.2,5.1-0.4c9.4-0.6,18.9-1.3,28.3-1.9c1.7,0,3.4-0.2,5.1-0.2c9.6-0.6,19.1-1.1,28.7-1.5
		c0.4,0,0.9,0,1.3,0c0,0,0,0,0.2,0c1.1,0,2.1,0,3.2,0c7.7-0.2,15.1-0.6,22.7-0.9c1.5,0,3,0,4.5,0c8.5-0.2,16.8-0.4,25.3-0.6
		c0.9,0,1.5,0,2.3,0c0,0,0.2,0,0.4,0c1.1,0,2.1,0,3.2,0c8.3,0,16.4-0.2,24.9-0.2c0.4,0,0.9,0,1.3,0c8.5,0,17,0,25.7,0.2
		c1.1,0,2.1,0,3.2,0h0.2c0.9,0,1.7,0,2.6,0c9.4,0,18.9,0.4,28.3,0.6c1.7,0,3.4,0,4.9,0.2c9.8,0.2,19.3,0.6,29.1,1.1
		c0.9,0,1.9,0,2.8,0c9.6,0.4,19.3,1.1,28.9,1.5c0.9,0,1.7,0,2.6,0.2c9.8,0.6,19.3,1.3,29.1,2.1c1.7,0,3.2,0.2,4.9,0.4
		c9.4,0.9,18.9,1.5,28.3,2.6c1.7,0.2,3.6,0.2,5.1,0.4c9.6,0.9,18.9,1.9,28.5,3c1.3,0.2,2.8,0.2,4,0.4c10,1.1,20,2.3,30,3.6
		c0.2,0,0.2,0,0.4,0c10,1.3,19.8,2.6,29.5,4c0.9,0,1.7,0.2,2.6,0.4c0.2,0,0.2,0,0.4,0c0.4,0,0.9,0,1.3,0.2
		c8.3,1.3,16.6,2.6,24.9,3.8c1.9,0.2,3.8,0.6,5.7,0.9c8.1,1.3,16.2,2.6,24,4c0.4,0,0.9,0,1.3,0.2c0.2,0,0.4,0,0.6,0l0,0
		c8.5,1.5,16.8,3,25.3,4.7c1.9,0.4,4,0.9,6,1.1c8.3,1.5,16.6,3.2,24.9,4.9c0.2,0,0.6,0,1.1,0.2c0.2,0,0.4,0,0.4,0
		c1.1,0.2,1.9,0.4,3,0.6c7.4,1.5,14.9,3,22.1,4.7c1.9,0.4,3.6,0.9,5.5,1.3c8.1,1.7,16.4,3.6,24.2,5.5c0.9,0.2,1.5,0.2,2.3,0.4l0,0
		l0,0c40.4,9.4,80.5,20,120.3,31.9c10.4,4,18.7,5.7,22.1,8.7c0.9,0.6,1.5,1.7,1.5,2.8C1243.9,670.7,1243.1,672,1241.8,672.8"/>
	<path d="M1001.9,528.1v26.6c0.6,0,1.3-0.2,1.7-0.2c4-0.6,7.2-1.9,9.4-3.8c2.3-1.9,3.4-4.7,3.4-8.1c0-3.2-1.3-6.2-3.6-8.7
		C1010.4,531.1,1006.7,529.2,1001.9,528.1"/>
	<path d="M520.5,696.6l-3.4,1.9c-12.3-30.8-23.2-63.5-33.2-97.8c-27.2,2.1-54.4,4.7-81.6,7.7c7.7,26.1,16.2,51.9,25.5,77.4
		l-25.5,14.9c-19.1-26.8-36.3-55.5-51.9-85.4c-26.4,3.8-52.5,7.9-78.4,12.5c32.7,67.4,72.3,126.2,119.6,178.9l70.1-41.9
		c34.4,71.6,82.7,142.4,135.8,198.9V595.7c-26.1,0.4-52.1,1.5-78.2,3L520.5,696.6z"/>
	<path d="M290.1,526.6c-2.6-1.7-6.2-2.3-10.8-1.5v26.6c0.6-0.2,1.3-0.6,1.7-1.1c4-2.1,7.2-4.5,9.4-7.2c2.3-2.8,3.4-5.7,3.4-9.4
		C294,530.7,292.7,528.1,290.1,526.6"/>
	<path d="M449.9,506c-2.6-1.9-6.2-2.8-11.1-2.6V530c0.6-0.2,1.3-0.6,1.9-0.9c4-1.7,7.2-4,9.6-6.6s3.4-5.5,3.4-8.9
		C453.6,510.5,452.3,507.9,449.9,506"/>
	<path d="M233.6,539.2c-2.1,11.1-4,22.1-6.2,33.2c4-0.9,8.1-1.5,12.1-2.3C237.8,559.6,235.7,549.4,233.6,539.2"/>
</g>
</svg>
